<svg xmlns="http://www.w3.org/2000/svg" xmlns:xlink="http://www.w3.org/1999/xlink" width="1060" height="651.3"><rect width="1060" height="651.3" rx="0" ry="0" class="a"/><svg height="651.3" viewBox="0 0 106 65.13" width="1060" xmlns="http://www.w3.org/2000/svg" xmlns:xlink="http://www.w3.org/1999/xlink"><style>@keyframes k{0%{transform:translateX(0)}16.4%{transform:translateX(-106px)}32.8%{transform:translateX(-212px)}34.6%{transform:translateX(-318px)}35.5%{transform:translateX(-424px)}37.1%{transform:translateX(-530px)}38.4%{transform:translateX(-636px)}45.4%{transform:translateX(-742px)}50.2%{transform:translateX(-848px)}70%{transform:translateX(-1060px)}to{transform:translateX(-1272px)}}.a{fill:#282d35}.c{fill:#b9c0cb}.e{fill:#d290e3;font-weight:700}.f{fill:#6f7783}.g{fill:#a8cc8c}.h{fill:#e88388}</style><g font-size="1.67" font-family="Monaco,Consolas,Menlo,'Bitstream Vera Sans Mono','Powerline Symbols',monospace"><defs><symbol id="1"><text y="1.67" class="c">bash-5.3$</text></symbol><symbol id="2"><text y="1.67" class="c">bash-5.3$</text><text x="10.02" y="1.67" class="c">nprt</text></symbol><symbol id="3"><text y="1.67" class="c">bash-5.3$</text><text x="10.02" y="1.67" class="c">nprt</text><text x="15.03" y="1.67" class="c">485174</text></symbol><symbol id="4"><text y="1.67" fill="#d290e3"></text><text x="2.004" y="1.67" class="e">PR</text><text x="5.01" y="1.67" class="e">#485174</text><text x="13.026" y="1.67" class="e">(swift:</text><text x="21.042" y="1.67" class="e">fix</text><text x="25.05" y="1.67" class="e">darwin</text><text x="32.064" y="1.67" class="e">build)</text></symbol><symbol id="5"><text y="1.67" class="f">by:</text><text x="4.008" y="1.67" class="f">corngood</text></symbol><symbol id="6"><text y="1.67" class="c">CHANNEL</text><text x="22.044" y="1.67" class="c">STATUS</text></symbol><symbol id="7"><text y="1.67" class="c">----------------------------</text></symbol><symbol id="8"><text y="1.67" class="c">master</text><text x="24.048" y="1.67" class="g">✓</text></symbol><symbol id="9"><text y="1.67" class="c">staging-next</text><text x="24.048" y="1.67" class="g">✓</text></symbol><symbol id="10"><text y="1.67" class="c">nixos-unstable-small</text><text x="24.048" y="1.67" class="g">✓</text></symbol><symbol id="11"><text y="1.67" class="c">nixos-unstable</text><text x="24.048" y="1.67" class="h">✗</text></symbol><symbol id="12"><text y="1.67" class="c">nixpkgs-unstable</text><text x="24.048" y="1.67" class="h">✗</text></symbol><symbol id="a"><path fill="transparent" d="M0 0h106v30H0z"/></symbol><symbol id="b"><path fill="#6f7683" d="M0 0h1.102v2.171H0z"/></symbol></defs><path class="a" d="M0 0h106v65.13H0z"/><g style="animation-duration:9.315s;animation-iteration-count:infinite;animation-name:k;animation-timing-function:steps(1,end)"><svg width="1378"><svg><use xlink:href="#a"/><use xlink:href="#b" x="-.004"/></svg><svg x="106"><use xlink:href="#a"/><use xlink:href="#b" x="9.996"/><use xlink:href="#1"/></svg><svg x="212"><use xlink:href="#a"/><use xlink:href="#b" x="10.996"/><text y="1.67" class="c">bash-5.3$</text><text x="10.02" y="1.67" class="c">n</text></svg><svg x="318"><use xlink:href="#a"/><use xlink:href="#b" x="11.996"/><text y="1.67" class="c">bash-5.3$</text><text x="10.02" y="1.67" class="c">np</text></svg><svg x="424"><use xlink:href="#a"/><use xlink:href="#b" x="12.996"/><text y="1.67" class="c">bash-5.3$</text><text x="10.02" y="1.67" class="c">npr</text></svg><svg x="530"><use xlink:href="#a"/><use xlink:href="#b" x="13.996"/><use xlink:href="#2"/></svg><svg x="636"><use xlink:href="#a"/><use xlink:href="#b" x="14.996"/><use xlink:href="#2"/></svg><svg x="742"><use xlink:href="#a"/><use xlink:href="#b" x="20.996"/><text y="1.67" class="c">bash-5.3$</text><text x="10.02" y="1.67" class="c">nprt</text><path class="c" d="M15.03 0h6v2.171h-6z"/><text x="15.03" y="1.67" class="a">485174</text></svg><svg x="848"><use xlink:href="#a"/><use xlink:href="#b" x="-.004" y="2.146"/><use xlink:href="#3"/></svg><svg x="954"><use xlink:href="#a"/><use xlink:href="#b" x="-.004" y="23.856"/><use xlink:href="#3"/><use xlink:href="#4" y="2.171"/><use xlink:href="#5" y="4.342"/><use xlink:href="#6" y="8.684"/><use xlink:href="#7" y="10.855"/><use xlink:href="#8" y="13.026"/><use xlink:href="#9" y="15.197"/><use xlink:href="#10" y="17.368"/><use xlink:href="#11" y="19.539"/><use xlink:href="#12" y="21.71"/></svg><svg x="1060"><use xlink:href="#a"/><use xlink:href="#b" x="9.996" y="23.856"/><use xlink:href="#3"/><use xlink:href="#4" y="2.171"/><use xlink:href="#5" y="4.342"/><use xlink:href="#6" y="8.684"/><use xlink:href="#7" y="10.855"/><use xlink:href="#8" y="13.026"/><use xlink:href="#9" y="15.197"/><use xlink:href="#10" y="17.368"/><use xlink:href="#11" y="19.539"/><use xlink:href="#12" y="21.71"/><use xlink:href="#1" y="23.881"/></svg><svg x="1166"><use xlink:href="#a"/><use xlink:href="#b" x="-.004" y="26.027"/><use xlink:href="#3"/><use xlink:href="#4" y="2.171"/><use xlink:href="#5" y="4.342"/><use xlink:href="#6" y="8.684"/><use xlink:href="#7" y="10.855"/><use xlink:href="#8" y="13.026"/><use xlink:href="#9" y="15.197"/><use xlink:href="#10" y="17.368"/><use xlink:href="#11" y="19.539"/><use xlink:href="#12" y="21.71"/><use xlink:href="#1" y="23.881"/></svg><svg x="1272"><use xlink:href="#a"/><use xlink:href="#b" x="-.004" y="28.198"/><use xlink:href="#3"/><use xlink:href="#4" y="2.171"/><use xlink:href="#5" y="4.342"/><use xlink:href="#6" y="8.684"/><use xlink:href="#7" y="10.855"/><use xlink:href="#8" y="13.026"/><use xlink:href="#9" y="15.197"/><use xlink:href="#10" y="17.368"/><use xlink:href="#11" y="19.539"/><use xlink:href="#12" y="21.71"/><use xlink:href="#1" y="23.881"/><text y="27.722" class="c">exit</text></svg></svg></g></g></svg></svg>